<?xml version="1.0" standalone="no"?>
<!DOCTYPE svg PUBLIC "-//W3C//DTD SVG 20010904//EN"
 "http://www.w3.org/TR/2001/REC-SVG-20010904/DTD/svg10.dtd">
<svg version="1.0" xmlns="http://www.w3.org/2000/svg"
 width="150.000000pt" height="150.000000pt" viewBox="0 0 150.000000 150.000000"
 preserveAspectRatio="xMidYMid meet">
<metadata>
Created by potrace 1.11, written by Peter Selinger 2001-2013
</metadata>
<g transform="translate(0.000000,150.000000) scale(0.100000,-0.100000)"
fill="#000000" stroke="none">
<path d="M617 1326 c-167 -38 -321 -161 -395 -316 -47 -100 -60 -155 -60 -259
1 -377 362 -656 728 -561 196 50 366 218 421 415 14 52 19 217 8 270 -68 313
-391 521 -702 451z m272 -185 c279 -106 357 -461 147 -675 -211 -214 -577
-133 -677 150 -71 199 20 420 206 509 31 14 75 30 98 35 62 12 169 3 226 -19z"/>
<path d="M621 1009 c-208 -104 -213 -391 -9 -505 46 -25 63 -29 133 -29 71 0
86 4 135 31 199 112 196 400 -5 501 -36 19 -69 27 -122 29 -63 3 -78 0 -132
-27z m171 -155 c86 -38 86 -159 1 -199 -94 -45 -193 54 -149 147 29 60 84 80
148 52z"/>
</g>
</svg>
