<?xml version="1.0" encoding="utf-8"?>
<!-- Generator: Adobe Illustrator 15.0.0, SVG Export Plug-In . SVG Version: 6.00 Build 0)  -->
<!DOCTYPE svg PUBLIC "-//W3C//DTD SVG 1.1//EN" "http://www.w3.org/Graphics/SVG/1.1/DTD/svg11.dtd">
<svg version="1.1" id="Layer_1" xmlns="http://www.w3.org/2000/svg" xmlns:xlink="http://www.w3.org/1999/xlink" x="0px" y="0px"
	 width="300px" height="100px" viewBox="0 0 300 100" enable-background="new 0 0 300 100" xml:space="preserve">
<path fill="none" stroke="#666766" stroke-width="4" stroke-miterlimit="10" d="M62.1,4H49.188c-3.565,0-6.455,2.89-6.455,6.456
	c0,3.565-2.89,6.455-6.456,6.455s-6.456-2.89-6.456-6.455C29.822,6.89,26.932,4,23.367,4H10.456C6.89,4,4,6.89,4,10.456V62.1
	c0,3.565,2.89,6.456,6.456,6.456h12.912c3.565,0,6.455-2.891,6.455-6.456c0-3.564,2.89-6.455,6.456-6.455s6.456,2.891,6.456,6.455
	c0,3.565,2.89,6.456,6.455,6.456H62.1c3.566,0,6.456-2.891,6.456-6.456V10.456C68.556,6.89,65.666,4,62.1,4z"/>
<circle fill="none" stroke="#666766" stroke-width="4" stroke-miterlimit="10" cx="87.922" cy="36.278" r="32.278"/>
<circle fill="none" stroke="#666766" stroke-width="4" stroke-miterlimit="10" cx="139.567" cy="36.278" r="32.278"/>
<path fill="none" stroke="#666766" stroke-width="4" stroke-miterlimit="10" d="M191.211,4c-0.648,0-1.293,0.021-1.932,0.06
	C188.854,4.021,188.423,4,187.984,4h-19.368c-5.347,0-9.684,2.89-9.684,6.456V62.1c0,3.565,4.337,6.456,9.684,6.456h19.368
	c0.438,0,0.87-0.021,1.295-0.06c0.639,0.038,1.283,0.06,1.932,0.06c17.827,0,32.277-14.45,32.277-32.278
	C223.488,18.451,209.038,4,191.211,4z"/>
<path fill="none" stroke="#666766" stroke-width="4" stroke-miterlimit="10" d="M234.786,4h-16.139c-4.457,0-8.069,2.89-8.069,6.456
	V62.1c0,3.565,3.612,6.456,8.069,6.456h16.139c4.457,0,8.069-2.891,8.069-6.456V10.456C242.855,6.89,239.243,4,234.786,4z"/>
<path fill="none" stroke="#666766" stroke-width="4" stroke-miterlimit="10" d="M294.5,20.139v-9.683
	C294.5,6.89,291.609,4,288.044,4h-25.821c-17.828,0-32.278,14.451-32.278,32.278c0,17.828,14.45,32.278,32.278,32.278h25.821
	c3.565,0,6.456-2.891,6.456-6.456v-9.683c0-3.565-2.891-6.456-6.456-6.456c3.565,0,6.456-2.76,6.456-6.455c0-1.224,0-5.517,0-6.456
	c0-3.817-3.34-6.455-6.456-6.455C291.609,26.595,294.5,23.705,294.5,20.139z"/>
</svg>
