<?xml version="1.0" encoding="utf-8"?>
<!-- Generator: Adobe Illustrator 15.0.0, SVG Export Plug-In . SVG Version: 6.00 Build 0)  -->
<!DOCTYPE svg PUBLIC "-//W3C//DTD SVG 1.1//EN" "http://www.w3.org/Graphics/SVG/1.1/DTD/svg11.dtd">
<svg version="1.1" id="Layer_1" xmlns="http://www.w3.org/2000/svg" xmlns:xlink="http://www.w3.org/1999/xlink" x="0px" y="0px"
	 width="300px" height="300px" viewBox="0 0 300 300" enable-background="new 0 0 300 300" xml:space="preserve">
<g>
	<path d="M268.145,121.4h-6.932c-0.553,0-1-0.448-1-1c0-0.552,0.447-1,1-1h6.421c-13.655-51.577-60.646-89.6-116.519-89.6
		c-24.075,0-46.499,7.064-65.32,19.227l3.75,5.688c0.304,0.461,0.177,1.081-0.285,1.385c-0.169,0.112-0.36,0.165-0.549,0.165
		c-0.325,0-0.644-0.158-0.836-0.45l-3.751-5.689c-32.276,21.625-53.529,58.428-53.529,100.195c0,10.031,1.233,19.77,3.542,29.086
		h6.715c0.552,0,1,0.446,1,1c0,0.553-0.448,1-1,1h-6.201c13.711,51.495,60.657,89.444,116.464,89.444
		c24.209,0,46.746-7.145,65.634-19.432l-3.163-4.799c-0.304-0.462-0.177-1.082,0.284-1.387c0.464-0.303,1.082-0.174,1.386,0.285
		l3.164,4.799c32.107-21.653,53.227-58.363,53.227-100C271.646,140.351,270.426,130.667,268.145,121.4z M86.195,148.753
		c-0.338,0-0.55-0.211-0.677-0.507l-3.467-8.879H68.438l-3.509,8.921c-0.084,0.254-0.338,0.465-0.677,0.465
		c-0.38,0-0.676-0.296-0.676-0.677c0-0.084,0.042-0.253,0.084-0.338l10.951-27.653c0.084-0.253,0.296-0.465,0.634-0.465
		s0.592,0.211,0.676,0.465l10.909,27.653c0.042,0.084,0.084,0.253,0.084,0.338C86.914,148.457,86.618,148.753,86.195,148.753z
		 M106.576,148.415H92.665c-0.338,0-0.592-0.254-0.592-0.592v-27.526c0-0.38,0.296-0.676,0.677-0.676s0.676,0.296,0.676,0.676
		v26.934h13.15c0.338,0,0.592,0.254,0.592,0.592C107.168,148.161,106.915,148.415,106.576,148.415z M126.998,153.906h-13.657v12.769
		h10.655c0.338,0,0.592,0.255,0.592,0.593s-0.253,0.592-0.592,0.592h-10.655v12.642c0,0.381-0.296,0.677-0.676,0.677
		s-0.677-0.296-0.677-0.677v-27.103c0-0.381,0.296-0.678,0.677-0.678h14.333c0.338,0,0.592,0.254,0.592,0.594
		C127.59,153.652,127.336,153.906,126.998,153.906z M127.758,148.416h-14.841c-0.38,0-0.677-0.296-0.677-0.676v-27.103
		c0-0.38,0.296-0.677,0.677-0.677h14.333c0.338,0,0.592,0.254,0.592,0.592c0,0.338-0.254,0.592-0.592,0.592h-13.657v12.346h10.655
		c0.338,0,0.592,0.254,0.592,0.592s-0.253,0.592-0.592,0.592h-10.655v12.558h14.165c0.338,0,0.592,0.254,0.592,0.592
		C128.35,148.162,128.096,148.416,127.758,148.416z M149.153,181.18h-14.841v-0.002c-0.38,0-0.677-0.296-0.677-0.677v-27.103
		c0-0.381,0.296-0.678,0.677-0.678h14.333c0.338,0,0.592,0.254,0.592,0.594c0,0.338-0.254,0.592-0.592,0.592h-13.657v12.346h10.655
		c0.338,0,0.592,0.254,0.592,0.592c0,0.34-0.253,0.594-0.592,0.594h-10.655v12.558h14.165c0.338,0,0.592,0.253,0.592,0.592
		C149.745,180.925,149.491,181.18,149.153,181.18z M149.702,148.754c-0.253,0-0.422-0.084-0.592-0.338l-8.752-13.446l-8.794,13.446
		c-0.127,0.211-0.381,0.338-0.634,0.338c-0.38,0-0.677-0.296-0.677-0.677c0-0.211,0.042-0.296,0.127-0.423l9.218-13.868
		l-8.67-13.065c-0.084-0.127-0.127-0.253-0.127-0.38c0-0.423,0.296-0.719,0.677-0.719c0.296,0,0.507,0.126,0.634,0.338l8.245,12.6
		l8.203-12.6c0.127-0.211,0.338-0.338,0.592-0.338c0.423,0,0.719,0.296,0.719,0.719c0,0.127-0.042,0.253-0.127,0.38l-8.625,13.065
		l9.175,13.868c0.084,0.127,0.127,0.211,0.127,0.423C150.421,148.458,150.125,148.754,149.702,148.754z M171.816,153.525
		l-9.049,14.207v13.107c0,0.381-0.297,0.676-0.677,0.676c-0.381,0-0.677-0.295-0.677-0.676v-13.107l-9.091-14.207
		c-0.085-0.127-0.128-0.295-0.128-0.422c0-0.424,0.297-0.72,0.678-0.72c0.296,0,0.508,0.126,0.634,0.339l8.584,13.74l8.54-13.74
		c0.17-0.254,0.381-0.339,0.594-0.339c0.422,0,0.719,0.296,0.719,0.72C171.943,153.23,171.9,153.398,171.816,153.525z
		 M192.068,181.18h-14.842v-0.002c-0.381,0-0.677-0.296-0.677-0.677v-27.103c0-0.381,0.296-0.678,0.677-0.678h14.334
		c0.338,0,0.592,0.254,0.592,0.594c0,0.338-0.254,0.592-0.592,0.592h-13.658v12.346h10.656c0.338,0,0.592,0.254,0.592,0.592
		c0,0.34-0.254,0.594-0.592,0.594h-10.656v12.558h14.166c0.338,0,0.592,0.253,0.592,0.592
		C192.66,180.925,192.406,181.18,192.068,181.18z M215.279,181.516c-0.213,0-0.424-0.084-0.592-0.338l-9.346-12.938h-5.793v12.6
		h0.001c0,0.381-0.296,0.676-0.677,0.676c-0.38,0-0.676-0.295-0.676-0.676v-27.441c0-0.381,0.296-0.676,0.676-0.676h8.88
		c4.481,0,7.737,3.424,7.737,7.736s-3.045,7.779-7.61,7.779h-1.015c0,0,9.133,12.348,9.006,12.179c0,0,0.127,0.169,0.127,0.423
		C215.998,181.221,215.702,181.516,215.279,181.516z M239.21,181.516c-0.296,0-0.466-0.168-0.592-0.338l-10.951-15.475l-4.905,5.453
		v9.684c0,0.38-0.296,0.676-0.677,0.676c-0.38,0-0.676-0.296-0.676-0.676v-27.779c0-0.381,0.296-0.677,0.676-0.677
		c0.381,0,0.677,0.296,0.677,0.677v16.193l14.545-16.617c0.17-0.168,0.297-0.253,0.551-0.253c0.422,0,0.719,0.296,0.719,0.72
		c0,0.211-0.084,0.379-0.211,0.506l-9.811,11.037l11.247,15.771c0.085,0.127,0.128,0.253,0.128,0.423
		C239.93,181.178,239.633,181.516,239.21,181.516z M260.098,181.18h-14.843v-0.002c-0.38,0-0.676-0.296-0.676-0.677v-27.103
		c0-0.381,0.296-0.678,0.676-0.678h14.334c0.338,0,0.593,0.254,0.593,0.594c0,0.338-0.255,0.592-0.593,0.592h-13.657v12.346h10.655
		c0.338,0,0.593,0.254,0.593,0.592c0,0.34-0.255,0.594-0.593,0.594h-10.655v12.558h14.166c0.338,0,0.592,0.253,0.592,0.592
		C260.689,180.925,260.436,181.18,260.098,181.18z"/>
	<path d="M214.139,160.459c0-3.764-2.623-6.553-6.386-6.553h-8.203v13.107h8.33C211.559,167.014,214.139,164.18,214.139,160.459z"/>
	<polygon points="68.861,138.141 81.631,138.141 75.246,121.735 	"/>
</g>
</svg>
