<?xml version="1.0" encoding="utf-8"?>
<!-- Generator: Adobe Illustrator 15.0.0, SVG Export Plug-In . SVG Version: 6.00 Build 0)  -->
<!DOCTYPE svg PUBLIC "-//W3C//DTD SVG 1.1//EN" "http://www.w3.org/Graphics/SVG/1.1/DTD/svg11.dtd">
<svg version="1.1" id="Layer_1" xmlns="http://www.w3.org/2000/svg" xmlns:xlink="http://www.w3.org/1999/xlink" x="0px" y="0px"
	 width="300px" height="300px" viewBox="0 0 300 300" enable-background="new 0 0 300 300" xml:space="preserve">
<path d="M268.144,121.4h-6.931c-0.553,0-1-0.448-1-1s0.447-1,1-1h6.421C253.979,67.823,206.989,29.8,151.115,29.8
	c-24.075,0-46.499,7.064-65.32,19.227l3.75,5.688c0.304,0.461,0.177,1.081-0.285,1.385c-0.169,0.112-0.36,0.165-0.549,0.165
	c-0.325,0-0.644-0.158-0.836-0.45l-3.751-5.689c-32.276,21.625-53.529,58.428-53.529,100.195c0,10.03,1.233,19.77,3.542,29.086
	h6.715c0.552,0,1,0.447,1,1s-0.448,1-1,1h-6.201c13.711,51.495,60.657,89.445,116.464,89.445c24.209,0,46.747-7.145,65.634-19.432
	l-3.163-4.799c-0.304-0.462-0.177-1.082,0.284-1.386c0.464-0.303,1.082-0.175,1.386,0.284l3.164,4.8
	c32.108-21.654,53.226-58.364,53.226-100C271.646,140.351,270.426,130.667,268.144,121.4z"/>
<g>
	<g>
		<path fill="#FFFFFF" d="M113.341,180.501c0,0.381-0.296,0.677-0.676,0.677s-0.677-0.296-0.677-0.677v-27.103
			c0-0.381,0.296-0.677,0.677-0.677h14.333c0.338,0,0.592,0.254,0.592,0.593c0,0.338-0.254,0.592-0.592,0.592h-13.657v12.769h10.655
			c0.338,0,0.592,0.254,0.592,0.592c0,0.339-0.253,0.592-0.592,0.592h-10.655V180.501z"/>
		<path fill="#FFFFFF" d="M134.312,181.178c-0.38,0-0.677-0.296-0.677-0.677v-27.103c0-0.381,0.296-0.677,0.677-0.677h14.333
			c0.338,0,0.592,0.254,0.592,0.593c0,0.338-0.254,0.592-0.592,0.592h-13.657v12.346h10.655c0.338,0,0.592,0.254,0.592,0.592
			c0,0.339-0.253,0.593-0.592,0.593h-10.655v12.558h14.165c0.338,0,0.592,0.253,0.592,0.592c0,0.338-0.254,0.592-0.592,0.592
			H134.312z"/>
		<path fill="#FFFFFF" d="M161.414,180.84v-13.107l-9.091-14.207c-0.085-0.127-0.127-0.296-0.127-0.423
			c0-0.423,0.296-0.719,0.677-0.719c0.296,0,0.508,0.126,0.634,0.338l8.584,13.741l8.54-13.741c0.17-0.253,0.381-0.338,0.593-0.338
			c0.423,0,0.719,0.296,0.719,0.719c0,0.127-0.043,0.296-0.127,0.423l-9.049,14.207v13.107c0,0.38-0.296,0.676-0.676,0.676
			C161.71,181.516,161.414,181.22,161.414,180.84z"/>
		<path fill="#FFFFFF" d="M177.226,181.178c-0.38,0-0.676-0.296-0.676-0.677v-27.103c0-0.381,0.296-0.677,0.676-0.677h14.334
			c0.338,0,0.592,0.254,0.592,0.593c0,0.338-0.254,0.592-0.592,0.592h-13.657v12.346h10.655c0.338,0,0.592,0.254,0.592,0.592
			c0,0.339-0.254,0.593-0.592,0.593h-10.655v12.558h14.165c0.338,0,0.592,0.253,0.592,0.592c0,0.338-0.254,0.592-0.592,0.592
			H177.226z"/>
		<path fill="#FFFFFF" d="M199.55,180.84c0,0.38-0.296,0.676-0.677,0.676c-0.38,0-0.676-0.296-0.676-0.676v-27.441
			c0-0.381,0.296-0.677,0.676-0.677h8.88c4.481,0,7.737,3.425,7.737,7.737c0,4.313-3.044,7.78-7.61,7.78h-1.015
			c0,0,9.133,12.347,9.006,12.178c0,0,0.127,0.169,0.127,0.423c0,0.38-0.296,0.676-0.719,0.676c-0.212,0-0.423-0.084-0.592-0.338
			l-9.345-12.938h-5.793V180.84z M199.55,167.014h8.33c3.679,0,6.258-2.834,6.258-6.555c0-3.763-2.622-6.553-6.385-6.553h-8.203
			V167.014z"/>
		<path fill="#FFFFFF" d="M237.307,152.637c0.17-0.168,0.296-0.253,0.55-0.253c0.423,0,0.719,0.296,0.719,0.719
			c0,0.212-0.084,0.38-0.211,0.507l-9.81,11.036l11.247,15.771c0.084,0.127,0.127,0.253,0.127,0.423
			c0,0.338-0.296,0.676-0.719,0.676c-0.296,0-0.466-0.169-0.592-0.338l-10.951-15.475l-4.905,5.454v9.683
			c0,0.38-0.296,0.676-0.677,0.676c-0.38,0-0.676-0.296-0.676-0.676v-27.779c0-0.381,0.296-0.677,0.676-0.677
			c0.381,0,0.677,0.296,0.677,0.677v16.193L237.307,152.637z"/>
		<path fill="#FFFFFF" d="M245.255,181.178c-0.38,0-0.676-0.296-0.676-0.677v-27.103c0-0.381,0.296-0.677,0.676-0.677h14.334
			c0.338,0,0.592,0.254,0.592,0.593c0,0.338-0.254,0.592-0.592,0.592h-13.657v12.346h10.655c0.338,0,0.592,0.254,0.592,0.592
			c0,0.339-0.254,0.593-0.592,0.593h-10.655v12.558h14.165c0.338,0,0.592,0.253,0.592,0.592c0,0.338-0.254,0.592-0.592,0.592
			H245.255z"/>
	</g>
	<g>
		<path fill="#FFFFFF" d="M68.438,139.367l-3.509,8.921c-0.084,0.254-0.338,0.465-0.677,0.465c-0.38,0-0.676-0.296-0.676-0.677
			c0-0.084,0.042-0.253,0.084-0.338l10.951-27.653c0.084-0.253,0.296-0.465,0.634-0.465s0.592,0.211,0.676,0.465l10.909,27.653
			c0.042,0.084,0.084,0.253,0.084,0.338c0,0.381-0.296,0.677-0.719,0.677c-0.338,0-0.55-0.211-0.677-0.507l-3.467-8.879H68.438z
			 M75.246,121.735l-6.385,16.406h12.77L75.246,121.735z"/>
		<path fill="#FFFFFF" d="M106.576,147.231c0.338,0,0.592,0.254,0.592,0.592c0,0.338-0.253,0.592-0.592,0.592H92.665
			c-0.338,0-0.592-0.254-0.592-0.592v-27.526c0-0.38,0.296-0.676,0.677-0.676s0.676,0.296,0.676,0.676v26.934H106.576z"/>
		<path fill="#FFFFFF" d="M112.917,148.416c-0.38,0-0.677-0.296-0.677-0.676v-27.103c0-0.38,0.296-0.677,0.677-0.677h14.333
			c0.338,0,0.592,0.254,0.592,0.592c0,0.338-0.254,0.592-0.592,0.592h-13.657v12.346h10.655c0.338,0,0.592,0.254,0.592,0.592
			c0,0.338-0.253,0.592-0.592,0.592h-10.655v12.558h14.165c0.338,0,0.592,0.254,0.592,0.592c0,0.338-0.254,0.592-0.592,0.592
			H112.917z"/>
		<path fill="#FFFFFF" d="M130.928,120.721c-0.084-0.127-0.127-0.253-0.127-0.38c0-0.423,0.296-0.719,0.677-0.719
			c0.296,0,0.507,0.126,0.634,0.338l8.245,12.6l8.203-12.6c0.127-0.211,0.338-0.338,0.592-0.338c0.423,0,0.719,0.296,0.719,0.719
			c0,0.127-0.042,0.253-0.127,0.38l-8.625,13.065l9.175,13.868c0.084,0.127,0.127,0.211,0.127,0.423
			c0,0.381-0.296,0.677-0.719,0.677c-0.253,0-0.422-0.084-0.592-0.338l-8.752-13.446l-8.794,13.446
			c-0.127,0.211-0.381,0.338-0.634,0.338c-0.38,0-0.677-0.296-0.677-0.677c0-0.211,0.042-0.296,0.127-0.423l9.218-13.868
			L130.928,120.721z"/>
	</g>
</g>
</svg>
